<?xml version="1.0" encoding="UTF-8"?>
<svg id="Layer_1" data-name="Layer 1" xmlns="http://www.w3.org/2000/svg" viewBox="0 0 763.89 911.53">
  <defs>
    <style>
      .cls-1 {
        stroke: #231f20;
        stroke-miterlimit: 10;
        stroke-width: 55px;
      }

      .cls-1, .cls-2 {
        fill: #231f20;
      }
    </style>
  </defs>
  <path class="cls-1" d="m736.39,572.8c0,84.24-28.16,156.72-84.46,217.46-57.64,62.51-128.35,93.77-212.14,93.77-97.54,0-178.89-43.89-244.06-131.67v109.73H64.74c-24.83,0-37.24-9.31-37.24-27.93s12.41-27.93,37.24-27.93h75.14V84.02h-75.14c-24.83,0-37.24-9.53-37.24-28.59s12.41-27.93,37.24-27.93h131v370.41c67.38-87.78,148.73-131.67,244.06-131.67,84.23,0,154.72,29.93,211.47,89.78,56.74,59.85,85.12,132.12,85.12,216.79Zm-55.86,2.66c0-68.27-23.06-127.23-69.16-176.89-47.45-50.54-105.07-75.81-172.9-75.81s-125.14,25.05-171.9,75.15c-46.78,50.1-70.16,109.29-70.16,177.56s23.38,127.46,70.16,177.56c46.77,50.1,104.07,75.14,171.9,75.14s125.46-25.27,172.9-75.81c46.1-49.65,69.16-108.61,69.16-176.89Z"/>
  <path class="cls-2" d="m603.91,698.45h-90.46v-130.12c0-10-1.05-16.93-3.14-20.8-2.1-3.87-5.89-5.8-11.37-5.8-10.16,0-15.24,8.95-15.24,26.85v129.88h-90.46v-130.12c0-10-1.09-16.93-3.27-20.8-2.18-3.87-6.01-5.8-11.49-5.8-10,0-15,8.95-15,26.85v129.88h-90.46v-148.5c0-27.09,9.11-50.1,27.33-69.05,18.22-18.95,40.31-28.42,66.27-28.42s50.79,11.29,72.07,33.86c23.7-22.57,47.4-33.86,71.11-33.86,30.15,0,54.34,10.97,72.56,32.89,14.35,17.09,21.52,42,21.52,74.74v138.35Z"/>
</svg>